# xmcd CD database file
#
# Track frame offsets:
#	150
#	26350
#	54131
#	71946
#	103896
#	131600
#	150708
#	179598
#	195380
#	224333
#	249598
#	274338
#
# Disc length: 3810 seconds
#
# Revision: 0
# Processed by: cddbd v1.5.1PL0 Copyright (c) Steve Scherf et al.
# Submitted via: CDex 1.51
#
DISCID=b10ee00c
DTITLE=Toshiki Nunokawa - ジャズギター金字塔 スタンダード編 1
DYEAR=1998
DGENRE=Jazz
TTITLE0=Alone Together
TTITLE1=Wave
TTITLE2=Donna Lee
TTITLE3=Stella By Starlight
TTITLE4=Shadow Of Your Smile
TTITLE5=Cherokee
TTITLE6=Sonnymoon For Two
TTITLE7=Airegin
TTITLE8=Like Someone In Love
TTITLE9=Someday My Prince Will Come
TTITLE10=On Green Dolphin Street
TTITLE11=Misty
EXTD=YEAR: 1998
EXTT0=
EXTT1=
EXTT2=
EXTT3=
EXTT4=
EXTT5=
EXTT6=
EXTT7=
EXTT8=
EXTT9=
EXTT10=
EXTT11=
PLAYORDER=
